<?xml version="1.0" encoding="UTF-8"?>
<svg version="1.1" xmlns="http://www.w3.org/2000/svg" width="96" height="96">
<path d="M0 0 C2.5625 1.375 2.5625 1.375 4 3 C4 3.66 4 4.32 4 5 C4.66 5 5.32 5 6 5 C6.28875 4.360625 6.5775 3.72125 6.875 3.0625 C8 1 8 1 10 0 C14.91533637 -0.67597946 18.01812752 -0.74141391 22.0625 2.3125 C24 5 24 5 24 8 C24.70125 8.061875 25.4025 8.12375 26.125 8.1875 C30.54548282 9.43676688 33.6851215 12.12160215 36.3125 15.875 C37 18 37 18 37.3125 21.25 C37.98429255 24.91432301 38.43935302 25.77736057 40.5625 28.5625 C44.32293131 34.18670193 43.97489298 40.50325224 43 47 C41.95355085 49.32757991 40.77552297 51.11711364 39.22265625 53.1328125 C37.77799699 55.33903335 37.46626935 57.09487576 37.0625 59.6875 C36.38685154 63.356208 36.01407938 63.98528065 33.25 66.875 C30.24071461 68.84260968 27.21003572 70.39498214 24 72 C23.13375 73.0828125 23.13375 73.0828125 22.25 74.1875 C19.04360892 76.77042615 16.36588859 76.54820783 12.34375 76.40625 C9.19356033 75.86021712 7.88755094 74.51673459 6 72 C5.34 72 4.68 72 4 72 C3.505 72.66 3.01 73.32 2.5 74 C-0.88509794 76.70807835 -3.36637311 76.6222212 -7.609375 76.4609375 C-11.19562462 75.76947107 -12.66821096 73.709917 -15 71 C-16.155 70.525625 -17.31 70.05125 -18.5 69.5625 C-22.71947149 67.67880737 -24.48078342 65.85291948 -27 62 C-27.34541851 59.66842508 -27.67794257 57.33491639 -28 55 C-28.81457222 53.78499834 -29.67337609 52.59905741 -30.5625 51.4375 C-34.32293131 45.81329807 -33.97489298 39.49674776 -33 33 C-31.95425548 30.67398737 -30.77356629 28.88130016 -29.2265625 26.86328125 C-27.79115118 24.68273603 -27.43343755 22.93738082 -27 20.375 C-26.13064279 15.6263413 -24.45009831 13.36795312 -21 10 C-18.28509275 8.24329531 -17.28565953 8 -14 8 C-13.9175 7.236875 -13.835 6.47375 -13.75 5.6875 C-13 3 -13 3 -11.5 1.1875 C-7.71009176 -0.61270641 -4.12143479 -0.57473219 0 0 Z " fill="#DD3B5C" transform="translate(43,10)"/>
<path d="M0 0 C3.49426968 2.74360765 4.8683718 4.17737915 5.58007812 8.62524414 C5.58735982 10.01195791 5.56980412 11.39895941 5.53125 12.78515625 C5.53451294 13.52326035 5.53777588 14.26136444 5.5411377 15.02183533 C5.55094581 17.36946728 5.5293943 19.71505157 5.5 22.0625 C5.46132218 25.15831043 5.45504586 28.25168346 5.46875 31.34765625 C5.44913208 32.05503433 5.42951416 32.76241241 5.40930176 33.4912262 C5.36811946 35.76378392 5.36811946 35.76378392 6 39 C8.41608211 41.36976119 8.41608211 41.36976119 11 43 C11 43.66 11 44.32 11 45 C9.35 45 7.7 45 6 45 C5.95101562 45.81984375 5.90203125 46.6396875 5.8515625 47.484375 C5.77679688 48.56203125 5.70203125 49.6396875 5.625 50.75 C5.55539063 51.81734375 5.48578125 52.8846875 5.4140625 53.984375 C5.02185226 56.84084954 4.62370003 58.63624622 3 61 C2.01 61.33 1.02 61.66 0 62 C0 62.99 0 63.98 0 65 C1.65 65 3.3 65 5 65 C5.44823695 68.85483779 5.27280781 70.58169469 3.125 73.875 C-0.6970629 76.47400277 -3.10310446 76.71746315 -7.64453125 76.49609375 C-11.18725103 75.74994879 -12.68639169 73.68878804 -15 71 C-16.155 70.525625 -17.31 70.05125 -18.5 69.5625 C-22.71947149 67.67880737 -24.48078342 65.85291948 -27 62 C-27.34541851 59.66842508 -27.67794257 57.33491639 -28 55 C-28.81457222 53.78499834 -29.67337609 52.59905741 -30.5625 51.4375 C-34.32293131 45.81329807 -33.97489298 39.49674776 -33 33 C-31.95425548 30.67398737 -30.77356629 28.88130016 -29.2265625 26.86328125 C-27.79115118 24.68273603 -27.43343755 22.93738082 -27 20.375 C-26.13064279 15.6263413 -24.45009831 13.36795312 -21 10 C-18.28509275 8.24329531 -17.28565953 8 -14 8 C-13.9175 7.236875 -13.835 6.47375 -13.75 5.6875 C-13 3 -13 3 -11.5 1.1875 C-7.78526904 -0.5769972 -4.00485021 -1.02653833 0 0 Z " fill="#F9778E" transform="translate(43,10)"/>
<path d="M0 0 C1.32 0 2.64 0 4 0 C5.75 2.5 5.75 2.5 7 5 C10.3 4.67 13.6 4.34 17 4 C17 5.32 17 6.64 17 8 C15.783125 8.391875 14.56625 8.78375 13.3125 9.1875 C9.2436245 10.6827758 6.98338362 12.84613732 4 16 C3.01 16 2.02 16 1 16 C1.165 15.2575 1.33 14.515 1.5 13.75 C2.11925696 10.80993422 2.11925696 10.80993422 2 7 C1.34 6.34 0.68 5.68 0 5 C-0.125 2.375 -0.125 2.375 0 0 Z " fill="#F66D87" transform="translate(58,32)"/>
<path d="M0 0 C0.99 0.33 1.98 0.66 3 1 C2.44271087 4.34373475 1.64826111 7.03312999 0 10 C0.66 10.66 1.32 11.32 2 12 C2 13.32 2 14.64 2 16 C0.68 16 -0.64 16 -2 16 C-2.556875 15.2575 -3.11375 14.515 -3.6875 13.75 C-6.84425413 9.99602211 -10.49315621 8.72377145 -15 7 C-14.67 6.01 -14.34 5.02 -14 4 C-10.04 4.33 -6.08 4.66 -2 5 C-1.34 3.35 -0.68 1.7 0 0 Z " fill="#E34464" transform="translate(37,48)"/>
<path d="M0 0 C3.76922693 1.25640898 5.425698 3.00824362 8 6 C8 10 8 10 5.75 12.75 C3 15 3 15 -1 15 C-0.67 14.2575 -0.34 13.515 0 12.75 C1.22782871 9.86116688 1.22782871 9.86116688 1 6 C0.67 5.67 0.34 5.34 0 5 C-0.04063832 3.33382885 -0.042721 1.66611905 0 0 Z " fill="#F25473" transform="translate(33,22)"/>
<path d="M0 0 C0.99 0.33 1.98 0.66 3 1 C2.67 1.7425 2.34 2.485 2 3.25 C0.77217129 6.13883312 0.77217129 6.13883312 1 10 C1.33 10.33 1.66 10.66 2 11 C2.04063832 12.66617115 2.042721 14.33388095 2 16 C-1.76922693 14.74359102 -3.425698 12.99175638 -6 10 C-6 6 -6 6 -3.5625 3.3125 C-2.716875 2.549375 -1.87125 1.78625 -1 1 C-0.67 0.67 -0.34 0.34 0 0 Z " fill="#F3557A" transform="translate(63,60)"/>
</svg>
